<!-- Generator: Adobe Illustrator 23.0.1, SVG Export Plug-In  -->
<svg version="1.1" xmlns="http://www.w3.org/2000/svg" xmlns:xlink="http://www.w3.org/1999/xlink" x="0px" y="0px"
	 width="500.92px" height="500.64px" viewBox="0 0 500.92 500.64" style="enable-background:new 0 0 500.92 500.64;"
	 xml:space="preserve">
<style type="text/css">
	.st0{fill:#384017;}
</style>
<defs>
</defs>
<path class="st0" d="M500.67,21.61c-2.93,0-5.73-0.6-8.27-1.68V6.8h-11.96c-0.64-2.02-1-4.18-1-6.41V0H21.47v0.39
	c0,2.23-0.35,4.39-1,6.41H8.52v13.13c-2.54,1.08-5.34,1.68-8.27,1.68H0v457.42h0.25c2.93,0,5.73,0.6,8.27,1.68v12.47h11.71
	c0.79,2.21,1.24,4.59,1.24,7.07v0.39h457.98v-0.39c0-2.48,0.45-4.85,1.24-7.07h11.71V480.7c2.54-1.08,5.34-1.68,8.27-1.68h0.25
	V21.61H500.67z M8.52,480.18c-2.48-1.03-5.18-1.62-8.02-1.65V22.11c2.84-0.03,5.54-0.62,8.02-1.65V480.18z M21.97,0.5h456.98
	c0.01,2.19,0.35,4.31,0.97,6.3H21C21.62,4.81,21.96,2.69,21.97,0.5z M9.02,7.3h11.27c-1.91,5.51-6.01,9.99-11.27,12.39V7.3z
	 M9.02,492.68v-11.73c5.05,2.3,9.03,6.52,11.03,11.73H9.02z M478.95,500.14H21.97c-0.01-2.44-0.45-4.77-1.2-6.96h459.39
	C479.4,495.36,478.96,497.7,478.95,500.14z M491.9,492.68h-11.03c2-5.21,5.98-9.43,11.03-11.73V492.68z M491.9,480.38
	c-5.33,2.36-9.51,6.81-11.56,12.29H20.58c-2.05-5.49-6.24-9.93-11.56-12.29V20.25c5.54-2.46,9.85-7.16,11.81-12.95H480.1
	c1.95,5.79,6.27,10.49,11.81,12.95V480.38z M491.9,19.69c-5.26-2.4-9.37-6.88-11.27-12.39h11.27V19.69z M500.42,478.53
	c-2.84,0.03-5.54,0.62-8.02,1.65V20.46c2.48,1.03,5.18,1.62,8.02,1.65V478.53z"/>
</svg>
